<?xml version="1.0" standalone="no"?>
<!DOCTYPE svg PUBLIC "-//W3C//DTD SVG 20010904//EN"
 "http://www.w3.org/TR/2001/REC-SVG-20010904/DTD/svg10.dtd">
<svg version="1.0" xmlns="http://www.w3.org/2000/svg"
 width="512.000000pt" height="512.000000pt" viewBox="0 0 512.000000 512.000000"
 preserveAspectRatio="xMidYMid meet">

<g transform="translate(0.000000,512.000000) scale(0.100000,-0.100000)"
fill="#000000" stroke="none">
<path d="M2375 4684 c-355 -54 -635 -193 -881 -438 -217 -218 -350 -461 -415
-759 -26 -121 -35 -329 -20 -436 69 -469 520 -1317 1237 -2321 204 -287 216
-300 264 -300 48 0 50 3 260 295 544 761 974 1500 1138 1955 91 252 117 387
109 570 -17 385 -165 719 -441 996 -214 214 -442 341 -736 411 -89 21 -135 25
-295 28 -104 2 -203 1 -220 -1z m395 -634 c107 -26 265 -103 350 -173 154
-126 258 -290 311 -495 26 -97 29 -284 6 -387 -76 -351 -351 -627 -698 -700
-91 -19 -278 -19 -370 0 -306 65 -562 293 -665 592 -79 233 -64 465 46 688
133 268 381 446 688 495 81 13 232 3 332 -20z"/>
<path d="M2322 3659 c-193 -32 -335 -236 -293 -422 34 -154 197 -382 409 -573
112 -100 122 -100 234 0 201 180 358 395 403 551 44 151 -39 336 -186 410 -86
44 -215 50 -302 14 -22 -9 -38 -8 -80 4 -72 21 -123 26 -185 16z"/>
</g>
</svg>
